<svg id="Camada_1" data-name="Camada 1" xmlns="http://www.w3.org/2000/svg" viewBox="0 0 595.77 130.55"><defs><style>.cls-1{fill:#373435;}.cls-2{fill:#a4a2a2;}.cls-3{fill:#706e6f;}.cls-4{fill:#00aeee;}.cls-5{fill:#393637;}.cls-6{fill:#d9e7ed;}.cls-7{fill:#d4e5eb;}.cls-8{fill:#fefefe;}.cls-9{fill:#e5ebed;}.cls-10{fill:#d1e5ec;}.cls-11{fill:#fdfdfd;}</style></defs><path class="cls-1" d="M202.75,327.52c1.25.63,2.66.57,4,.87A31.24,31.24,0,0,1,230,352.94c.15.86,0,1.21-.94,1.39-5.92,1.21-11.83,2.45-17.73,3.77-1.17.26-1.16-.4-1.34-1.11-1.12-4.48-3.72-7.58-8.35-8.62a10.1,10.1,0,0,0-11.09,5.56c-2.14,4.18-1.37,8.3,2.17,11.52a23.1,23.1,0,0,0,8.82,4.6c3.18,1,6.4,2,9.56,3a34.22,34.22,0,0,1,11.57,6.75c9.49,8.28,12,20.41,6.5,31.78a32.8,32.8,0,0,1-60.52-3.73c-1.41-4.29-1.41-4.29,2.91-5.2,4.88-1,9.78-2,14.65-3.13,1-.22,1.33-.08,1.6,1a12.12,12.12,0,0,0,10.21,8.73,11.83,11.83,0,0,0,12-5.78c2.29-3.59,1.78-7.34-1.21-10.38a18,18,0,0,0-7.52-4.16c-4.13-1.34-8.42-2.16-12.42-3.92A35.9,35.9,0,0,1,174,373.53c-7.38-10-6.88-23.59,1.28-34a30.16,30.16,0,0,1,20.25-11.65c.31,0,.73.16.9-.31h1.8a7.65,7.65,0,0,0,3.3,0Z" transform="translate(-8.14 -327.52)"/><path class="cls-2" d="M8.14,328.12l13.52-.05c15.76,0,31.53,0,47.29,0,1.41,0,1.75.4,1.74,1.75-.08,5.95,0,11.89,0,17.83,0,.48.34,1.11-.35,1.46a3.25,3.25,0,0,1-.47-2.29c0-5.14,0-10.29,0-15.43,0-2.42,0-2.45-2.4-2.45H11.27c-2.26,0-2.33.08-2.33,2.38q0,42.61,0,85.24c0,4,0,8.09,0,12.13a3.15,3.15,0,0,1-.42,2.16l-.37.08Z" transform="translate(-8.14 -327.52)"/><path class="cls-3" d="M201.54,327.52a3.92,3.92,0,0,1-3.3,0Z" transform="translate(-8.14 -327.52)"/><path class="cls-1" d="M399.76,382.29c-6.33,17.23-12.52,34-18.84,51.23-13.83-35.26-27.53-70.21-41.3-105.34h13.05c2.61,0,5.21.09,7.81,0a1.81,1.81,0,0,1,2,1.45q8.85,22.85,17.77,45.67a2.48,2.48,0,0,0,.77,1.38l19-48.44c6.39,16.35,12.64,32.37,19,48.71,2.17-5.55,4.2-10.76,6.23-16q6.12-15.74,12.21-31.49c.32-.81.63-1.29,1.65-1.29q10,.06,20,0c1.86,0,.84,1,.62,1.59q-10.07,25.75-20.17,51.48-9.93,25.32-19.87,50.63c-.17.44-.35.88-.65,1.61C412.6,416.38,406.27,399.57,399.76,382.29Z" transform="translate(-8.14 -327.52)"/><path class="cls-1" d="M531,379.57q0-24.93,0-49.87c0-1.25.21-1.66,1.59-1.65,12.81.06,25.62.27,38.42,0,16.24-.37,28.62,12.61,30.54,25.62a26.79,26.79,0,0,1-6.68,22.73c-.73.82-.84,1.14.1,1.87,4.56,3.58,6.6,8.63,8,14,3.9,15.23-3.51,30.61-17.63,36.62a27.49,27.49,0,0,1-10.79,2.22c-14.1.05-28.21,0-42.32.06-1.25,0-1.19-.58-1.19-1.45Q531,404.66,531,379.57Z" transform="translate(-8.14 -327.52)"/><path class="cls-1" d="M463.7,379.43c0-16.57,0-33.15,0-49.72,0-1.24.32-1.56,1.56-1.55q29.58.06,59.15,0c1.27,0,1.55.35,1.54,1.57-.07,5.94-.09,11.88,0,17.82,0,1.4-.43,1.58-1.66,1.57-12.71,0-25.42,0-38.13-.05-1.21,0-1.62.25-1.6,1.53q.09,8.38,0,16.78c0,1.17.38,1.39,1.46,1.39,9.2,0,18.41,0,27.62,0,1.29,0,1.53.37,1.52,1.58-.06,5.89-.08,11.78,0,17.67,0,1.45-.46,1.66-1.74,1.66-9.11-.05-18.22,0-27.32-.05-1.16,0-1.53.28-1.52,1.48.06,5.74.07,11.49,0,17.23,0,1.27.24,1.66,1.62,1.66,12.71-.07,25.41,0,38.12-.07,1.28,0,1.67.24,1.65,1.6-.09,6-.07,12,0,18,0,1.12-.27,1.41-1.4,1.41q-29.73-.06-59.45,0c-1.33,0-1.39-.54-1.38-1.57Q463.72,404.38,463.7,379.43Z" transform="translate(-8.14 -327.52)"/><path class="cls-4" d="M33.36,401.25C37.47,390.17,45.11,383,56.18,379.4,66.87,376,77.49,377,88,380.41a23,23,0,0,1,3.37,1.24c1.18.61,1.56.17,2-.9q7-16.69,14.08-33.34c2.52-6,5.06-11.93,7.52-17.93a1.8,1.8,0,0,1,2-1.3q6.45.07,12.91,0a1.9,1.9,0,0,1,2.08,1.39q11.78,28,23.64,55.92c.23.54.48,1.08.72,1.63,3-1.91,5.93-6.11,10.52-15.23,2.37,11.42-.21,24.6-11.55,32.62-8.53,6-18.15,8.07-28.44,7.37-9.56-.65-18.48-3.65-27.15-7.52-8.48-3.8-17.07-7.29-26.18-9.38-12.39-2.84-24.22-1.19-35.59,4.3l-4.19,2A1.83,1.83,0,0,1,33.36,401.25Z" transform="translate(-8.14 -327.52)"/><path class="cls-1" d="M244.49,431.72l6.16-13.88c2.1-4.73,4.19-9.47,6.33-14.19a2.63,2.63,0,0,0,0-2.38q-15.79-35.75-31.53-71.52c-.69-1.56-.69-1.57,1-1.56,6.2.06,12.4-.15,18.61.11a2.06,2.06,0,0,1,2.15,1.52c7.36,17.71,15.15,35.23,22.78,52.83.14.31.3.62.53,1.09,2-4.52,3.89-8.89,5.79-13.27q8.9-20.49,17.77-41a1.81,1.81,0,0,1,2-1.32c6.31.07,12.61.06,18.92,0,1.1,0,1.54.07,1,1.34Q293.5,380,271.14,430.62c-.26.59-.45,1.12-1.34,1.12C261.45,431.7,253.09,431.72,244.49,431.72Z" transform="translate(-8.14 -327.52)"/><path class="cls-1" d="M8.51,430.82c0-.55-.06-1.1-.06-1.65q0-49.5,0-99c0-1.54.41-1.87,1.9-1.87q29.11.07,58.24,0c1.56,0,1.9.44,1.88,1.92-.09,5.79,0,11.58,0,17.37,0,.5-.06,1-.1,1.49-13.16,0-26.32,0-39.48,0-1.27,0-1.68.23-1.66,1.61.09,5.59.06,11.18,0,16.77,0,1.07.3,1.33,1.34,1.33,9.2,0,18.41,0,27.62,0,1.49,0,1.75.45,1.53,1.79-.33,2.06-.57,4.15-.71,6.24,0,.86-.56.91-1.12,1.08A51.59,51.59,0,0,0,49.26,381a32.07,32.07,0,0,0-10,7.71,2.28,2.28,0,0,1-1.93.87c-2.3,0-4.6,0-6.9,0-.86,0-1.23.15-1.23,1.14.05,6,0,12.09,0,18.13,0,.86.27,1.11,1.1,1.07,1.3-.06,2.6,0,4,0-.2.57-.67.74-1,1a24.84,24.84,0,0,0-9.79,18c-.14,1.43-.43,2-2,2C17.12,430.75,12.81,430.83,8.51,430.82Z" transform="translate(-8.14 -327.52)"/><path class="cls-4" d="M24.71,429.71l-.91,1A24.53,24.53,0,0,1,26,421.41,27.81,27.81,0,0,1,35.71,410c11.42-8,23.95-10,37.43-6.88a98.11,98.11,0,0,1,23.64,9.28c.75.39.81.78.51,1.5q-3.29,8-6.51,15.92a1.38,1.38,0,0,1-1.51,1.06q-7.87-.08-15.76,0c-1.16,0-1.24-.31-.82-1.27,1.33-3,2.57-6.06,3.88-9.08.28-.65.3-1-.47-1.35-12.72-5.56-25.45-6.49-38.23-.22a26.19,26.19,0,0,0-4.48,2.71c-.21.51-.68.76-1.08,1.07s-1.06.75-1.52,1.21-1.27,1-1.67,1.72a5.58,5.58,0,0,1-1.93,1.81C26.2,428.05,25.83,429.29,24.71,429.71Z" transform="translate(-8.14 -327.52)"/><path class="cls-1" d="M27,427.3c.52-.73,1.53-.94,1.91-1.81.68-.51,1.23-1.16,1.92-1.64a16,16,0,0,1,1.52-1.2,4.42,4.42,0,0,1,1.36-.71,42.56,42.56,0,0,1,17.19-6.18,44.56,44.56,0,0,1,18.81,1.8,1,1,0,0,1,.85,1.15c0,3.69,0,7.39,0,11.08,0,1.06-.51,1.07-1.29,1.07-5.45,0-10.9,0-16.35,0-9,0-18,0-27,0-.31,0-1.67.68-.93-.77C25.41,428.94,26.37,428.24,27,427.3Z" transform="translate(-8.14 -327.52)"/><path class="cls-4" d="M164.14,406.16c.46.19.47.58.6.89,3.13,7.43,6.23,14.88,9.39,22.3.53,1.25.36,1.56-1,1.54-5.34-.08-10.69-.07-16,0a1.85,1.85,0,0,1-2.08-1.37c-1.44-3.71-3-7.4-4.51-11.06-.38-.9-.22-1.26.65-1.68C156.29,414.25,160.93,411.05,164.14,406.16Z" transform="translate(-8.14 -327.52)"/><path class="cls-1" d="M576.75,434.78c2.9,5.31,5.64,10.31,8.47,15.5l8.6-15.48c.48,2.05.87,3.75,1.26,5.44,1.22,5.29,2.43,10.58,3.68,15.87.21.9.09,1.19-.93,1.18-2.64,0-2.63,0-3.22-2.52-.72-3.09-1.45-6.17-2.25-9.61l-7.14,12.9-7.13-12.91c-.75,3.23-1.42,6.06-2.06,8.9-.79,3.5-.78,3.51-4.55,3.1Z" transform="translate(-8.14 -327.52)"/><path class="cls-1" d="M559.86,457.87c-5.79.82-11.69-5.1-11.56-11.44a11.5,11.5,0,1,1,23,0C571.41,452.87,565.42,458.66,559.86,457.87Z" transform="translate(-8.14 -327.52)"/><path class="cls-1" d="M464.32,443c0-2.1.06-4.19,0-6.29,0-1,.3-1.15,1.19-1.14,2.5,0,2.5,0,2.5,2.51,0,3.6,0,7.19,0,10.78a5.25,5.25,0,0,0,9.72,3,5.59,5.59,0,0,0,.77-3.15c0-3.79.08-7.59,0-11.38,0-1.51.45-2,1.84-1.73a1.14,1.14,0,0,0,.45,0c1.15-.18,1.54.24,1.52,1.46-.09,3.89,0,7.78,0,11.67a9,9,0,0,1-3.85,7.72,8.66,8.66,0,0,1-9,.72,8.34,8.34,0,0,1-5.08-7.71c-.1-2.14,0-4.29,0-6.44Z" transform="translate(-8.14 -327.52)"/><path class="cls-1" d="M509.16,434.76,520,457.27c-1.27,0-2.36,0-3.44,0-.85.05-1-.59-1.16-1.12-.59-2.08-1.85-2.84-4.05-2.58a41.42,41.42,0,0,1-6,0,1.55,1.55,0,0,0-1.69,1.05c-1.35,2.84-1.39,2.83-5.32,2.52Z" transform="translate(-8.14 -327.52)"/><path class="cls-1" d="M540.73,457.87c-5.65,0-9.83-3.05-11.32-8a11.75,11.75,0,0,1,4.74-13.27,11.49,11.49,0,0,1,13.32.58c.93.73,1.06,1.27.07,2a4.26,4.26,0,0,0-.73.74c-.54.67-.94.83-1.76.18a7.6,7.6,0,0,0-8.7-.47,7.94,7.94,0,0,0-3.58,8.4,7.81,7.81,0,0,0,6,6.15,7.25,7.25,0,0,0,6.22-1.41c.75-.63,1.15-.56,1.8.11,1.95,2,2,2-.45,3.53A8.59,8.59,0,0,1,540.73,457.87Z" transform="translate(-8.14 -327.52)"/><path class="cls-1" d="M491.53,457.87a6.66,6.66,0,0,1-6.75-4.92c-.25-.95-.12-1.54,1-1.61a2.84,2.84,0,0,0,.88-.14c1.06-.43,1.54-.14,1.9,1a2.93,2.93,0,0,0,3.81,2,3.32,3.32,0,0,0,2.26-3.61,2.78,2.78,0,0,0-2.07-2.32c-1.29-.4-2.6-.73-3.84-1.24a6.15,6.15,0,0,1-3.61-7,6.46,6.46,0,0,1,12.49-.84c.28.87.15,1.4-.87,1.5a8.16,8.16,0,0,0-1.47.3c-.69.19-1,0-1.29-.73a2.52,2.52,0,0,0-3-1.73,2.74,2.74,0,0,0-2.31,2.58,2.48,2.48,0,0,0,2.09,2.69,31.31,31.31,0,0,1,3.55,1.16c2.73,1.1,4.1,3.41,4,6.53a7,7,0,0,1-4.64,6.21A8.8,8.8,0,0,1,491.53,457.87Z" transform="translate(-8.14 -327.52)"/><path class="cls-5" d="M525.89,455.36c.45,1.57-.17,2.07-1.77,1.94-1.85-.14-1.71,0-1.9-2.07-.15-1.68.59-1.74,1.93-1.81C525.72,453.35,526.27,453.84,525.89,455.36Z" transform="translate(-8.14 -327.52)"/><path class="cls-6" d="M27,427.3c-.25,1.22-1.3,1.85-2,2.74l-.28-.33A6.78,6.78,0,0,1,27,427.3Z" transform="translate(-8.14 -327.52)"/><path class="cls-7" d="M33.71,421.94a3.06,3.06,0,0,1-1.22.88c-.32.12-.39,0-.32-.31l1.22-.85Z" transform="translate(-8.14 -327.52)"/><path class="cls-8" d="M564.1,388.26c4.51,0,9,0,13.52,0a5.09,5.09,0,0,1,3.72,1.29c4.85,4.56,7.17,14.33.52,20.64a10.81,10.81,0,0,1-7.62,3c-8,0-16.11,0-24.16,0-.9,0-1.19-.2-1.19-1.15q.06-11.31,0-22.62c0-1,.27-1.25,1.25-1.24C554.8,388.29,559.45,388.26,564.1,388.26Z" transform="translate(-8.14 -327.52)"/><path class="cls-8" d="M563,370.34c-4.25,0-8.5,0-12.75,0-1.05,0-1.34-.28-1.33-1.33,0-7.23.05-14.47,0-21.7,0-1.18.38-1.37,1.45-1.37,6.95,0,13.9.17,20.85,0,9.54-.25,14.51,8.76,12.13,16.7a15.21,15.21,0,0,1-2.54,4.87,6.7,6.7,0,0,1-5.79,2.84C571,370.27,567,370.34,563,370.34Z" transform="translate(-8.14 -327.52)"/><path class="cls-8" d="M140.59,394.28a51.3,51.3,0,0,1-20.41-.64,72.41,72.41,0,0,1-11.81-3.85c-.71-.29-1-.57-.64-1.43q7.51-18,15-36.05a7,7,0,0,1,.39-.68Z" transform="translate(-8.14 -327.52)"/><path class="cls-9" d="M31,424c-.68.5-1.1,1.36-2.05,1.5.25-.92,1.12-1.24,1.75-1.79C31,423.59,31,423.73,31,424Z" transform="translate(-8.14 -327.52)"/><path class="cls-10" d="M31,424l-.3-.29,1.51-1.19.32.31Z" transform="translate(-8.14 -327.52)"/><path class="cls-8" d="M559.78,454.31a7.77,7.77,0,0,1-7.78-8,7.81,7.81,0,1,1,7.78,8Z" transform="translate(-8.14 -327.52)"/><path class="cls-11" d="M506,449.81c1.09-2.22,2.08-4.25,3.17-6.49,1,2,1.81,3.85,2.71,5.64.33.67.2.87-.53.86C509.65,449.8,508,449.81,506,449.81Z" transform="translate(-8.14 -327.52)"/></svg>